<svg width="226" height="221" viewBox="0 0 226 221" fill="none" xmlns="http://www.w3.org/2000/svg">
    <path d="M65.4999 112.5L68.6375 107.386L62.7726 103.788L60.0062 110.088L65.4999 112.5ZM147 162.5L143.862 167.614L149.731 171.215L152.495 164.908L147 162.5ZM218 0.499509L162.188 41.5481L225.643 69.3587L218 0.499509ZM11.4936 250.412L70.9936 114.912L60.0062 110.088L0.506199 245.588L11.4936 250.412ZM62.3623 117.614L143.862 167.614L150.137 157.386L68.6375 107.386L62.3623 117.614ZM152.495 164.908L201.819 52.3665L190.828 47.5495L141.504 160.092L152.495 164.908Z"
          fill="url(#paint0_linear_211_6198)"/>
    <defs>
        <linearGradient id="paint0_linear_211_6198" x1="5.99988" y1="0.499512" x2="286.622" y2="151.297"
                        gradientUnits="userSpaceOnUse">
            <stop stop-color="#052758"/>
            <stop offset="1" stop-color="#15141D"/>
        </linearGradient>
    </defs>
</svg>
